<svg width="307" height="162" xmlns="http://www.w3.org/2000/svg">

 <g>
  <title>Layer 1</title>
  <ellipse ry="48" rx="95" id="svg_3" cy="114" cx="165.67963" stroke="#ffff56" fill="#ffff56"/>
  <ellipse stroke="#ffff56" ry="40.5" rx="57.5" id="svg_4" cy="40.5" cx="212.17963" fill="#ffff56"/>
  <path d="m199.67963,92c-1,0 -1,1 -2,2c-1,1 -0.29291,2.29291 -1,3c-0.70709,0.70709 -2.4588,0.69345 -3,2c-0.38269,0.92389 -0.07611,1.61731 -1,2c-1.30655,0.5412 -2,1 -2,2c0,1 -1.07611,1.61731 -2,2c-1.30655,0.5412 -1.07611,1.61731 -2,2c-1.30655,0.5412 -1.61731,2.07611 -2,3c-0.5412,1.30655 -2.4588,0.69345 -3,2c-0.38269,0.92389 -0.69345,1.4588 -2,2c-0.92389,0.38269 -1.07611,0.61731 -2,1c-1.30655,0.5412 -2.02676,1.77023 -3,2c-2.17624,0.51373 -3,2 -4,2c-1,0 -1,1 -2,1c-1,0 -2,0 -3,0c-1,0 -1,1 -2,1c-1,0 -1,1 -2,1c-1,0 -2,0 -3,0c-1,0 -1,1 -2,1c-1,0 -2,0 -3,0c-1,0 -2,0 -3,0c-1,0 -2,0 -3,0c-1,0 -1.69345,-0.4588 -3,-1c-0.92389,-0.38269 -1.29291,-1.29291 -2,-2c-0.70709,-0.70709 -2.29291,0.70709 -3,0c-0.70709,-0.70709 -0.29291,-1.29291 -1,-2c-0.70709,-0.70709 -2.29291,-0.29291 -3,-1c-0.70709,-0.70709 -1,-1 -2,-1l0,-1l0,-1l-1,0" id="svg_13" stroke="#000000" fill="none"/>
  <ellipse stroke="#000000" ry="5" rx="5" id="svg_14" cy="36" cx="234.67963" fill="#000000"/>
  <ellipse stroke="#ffff56" ry="7" rx="23.5" id="svg_16" cy="40" cx="283.17963" fill="#ff7f00"/>
  <ellipse transform="rotate(18.3152 280.18 50)" stroke="#ffff56" ry="7" rx="23.5" id="svg_17" cy="50" cx="280.17963" fill="#ff7f00"/>
  <ellipse transform="rotate(20.9231 48.6796 87)" stroke="#ffff56" ry="11" rx="43" id="svg_18" cy="87" cx="48.67963" fill="#ffff56"/>
  <ellipse transform="rotate(7.24598 42.6796 109)" stroke="#ffff56" ry="11" rx="43" id="svg_19" cy="109" cx="42.67963" fill="#ffff56"/>
 </g>
</svg>